<svg xmlns="http://www.w3.org/2000/svg" viewBox="0 0 216.7 216.9"><path fill="#eee" d="M216.7 108.45q0-44.75-31.6-76.9Q153.35 0 108.45 0 63.7 0 31.75 31.55 2.7 60.6.35 100.5q-.2.35-.2.7-.15 3.45-.15 7.25 0 3.6.15 7.2.35 6.5 1.45 12.8 5.6 32.3 30.15 56.7 6.3 6.45 13.5 11.55 27.25 20.2 63.2 20.2 35.9 0 63.3-20.2a93 93 0 0 0 11-9.25q1.3-1.05 2.35-2.3 31.6-31.95 31.6-76.7"/><path fill="#3a3f51" d="m194.65 42.5-22.4 22.4C159.152 77.998 158 89.4 158 109.5c0 17.934 2.852 34.352 16.2 47.7l19 18.95a126 126 0 0 1-8.1 9 17 17 0 0 1-2.35 2.3 91 91 0 0 1-7.9 6.95l-17.55-17.55c-15.598-15.6-27.996-17.1-48.6-17.1-19.77 0-33.223 1.822-47.7 16.3l-18.55 18.6a96 96 0 0 1-10.7-9.5q-4.2-4.2-7.85-8.6l19.15-19.2c13.852-13.853 16.1-29.916 16.1-47.85 0-17.5-2.874-33.823-15.6-46.55l-21.05-21a117 117 0 0 1 9.25-10.4 135 135 0 0 1 9-8.05L61.1 43.85C74.102 56.852 90.767 60.2 108.7 60.2c18.467 0 35.077-3.577 48.6-17.1l19.3-19.25q4.35 3.55 8.5 7.7a121 121 0 0 1 9.55 10.95"/><path fill="#0cf" d="M78.7 114a32 32 0 0 1-.4-3.55 40 40 0 0 1 0-4 .5.5 0 0 1 .05-.2q.652-11.05 8.7-19.1 8.85-8.75 21.25-8.75 12.45 0 21.25 8.75 8.75 8.9 8.75 21.3c0 12.4-2.916 15.35-8.75 21.25q-.3.35-.65.65a27 27 0 0 1-3.05 2.55q-7.598 5.6-17.55 5.6c-9.952 0-12.466-1.866-17.5-5.6a26.3 26.3 0 0 1-3.75-3.2q-6.799-6.75-8.35-15.7"/><path fill="none" stroke="#0cf" stroke-width="2" d="m142.8 74.4 15-14.65M30.785 32.526 71.65 73.25m84.6 84.25 27.808 28.78m1.855-153.894L157.8 59.75m-125.45 126 27.35-27.4"/><path fill="none" stroke="#0cf" stroke-width="7" d="m157.8 59.75-16.95 17.2M58.97 60.604l17.2 17.15M59.623 158.43l16.75-17.4m61.928-1.396 18.028 17.945"/></svg>